<mxfile host="app.diagrams.net" modified="2024-06-09T17:08:33.148Z" agent="Mozilla/5.0 (Windows NT 10.0; Win64; x64) AppleWebKit/537.36 (KHTML, like Gecko) Chrome/125.0.0.0 Safari/537.36" version="24.5.1" etag="clAqNNrUKO_j4HnOMD3t" type="github">
  <diagram name="Page-1" id="-8yVJmuqpwSlvLCTa67i">
    <mxGraphModel>
      <root>
        <mxCell id="0" />
        <mxCell id="1" parent="0" />
      </root>
    </mxGraphModel>
  </diagram>
</mxfile>
